<svg width="82" height="16" viewBox="0 0 82 16" fill="none" xmlns="http://www.w3.org/2000/svg">
    <style>
        path:first-of-type, rect {
            fill: #245530;
        }
        @media (prefers-color-scheme: dark) {
            path:first-of-type, rect { fill: #46A758; }
        }
    </style>

    <rect x="33.6411" width="47.4203" height="16" fill="#245530"/>
    <path d="M4.608 12.192C3.756 12.192 3.024 12.012 2.424 11.652C1.812 11.292 1.344 10.776 1.02 10.116C0.684 9.456 0.528 8.688 0.528 7.8C0.528 6.924 0.684 6.156 1.02 5.496C1.344 4.836 1.812 4.32 2.424 3.96C3.036 3.6 3.768 3.408 4.62 3.408C5.544 3.408 6.324 3.624 6.948 4.056C7.572 4.488 7.98 5.076 8.172 5.832H6.468C6.324 5.448 6.096 5.136 5.784 4.908C5.46 4.68 5.064 4.56 4.608 4.56C3.876 4.56 3.3 4.848 2.868 5.412C2.436 5.988 2.22 6.78 2.22 7.8C2.22 8.832 2.436 9.624 2.868 10.188C3.3 10.764 3.876 11.04 4.608 11.04C5.076 11.04 5.472 10.932 5.808 10.692C6.132 10.464 6.36 10.128 6.504 9.696H8.196C7.98 10.512 7.56 11.136 6.936 11.556C6.312 11.988 5.532 12.192 4.608 12.192ZM13.1155 12.192C12.2875 12.192 11.5675 12.012 10.9555 11.652C10.3435 11.292 9.87553 10.776 9.53953 10.116C9.20353 9.468 9.03553 8.688 9.03553 7.8C9.03553 6.912 9.20353 6.144 9.53953 5.484C9.87553 4.836 10.3435 4.32 10.9555 3.96C11.5675 3.6 12.2875 3.408 13.1155 3.408C13.9315 3.408 14.6515 3.6 15.2635 3.96C15.8635 4.32 16.3435 4.836 16.6795 5.484C17.0155 6.144 17.1955 6.912 17.1955 7.8C17.1955 8.688 17.0155 9.468 16.6795 10.116C16.3435 10.776 15.8635 11.292 15.2635 11.652C14.6515 12.012 13.9315 12.192 13.1155 12.192ZM13.1155 11.004C13.8475 11.004 14.4235 10.728 14.8555 10.164C15.2755 9.6 15.4915 8.808 15.4915 7.8C15.4915 6.792 15.2755 6.012 14.8435 5.448C14.4115 4.884 13.8355 4.596 13.1155 4.596C12.3835 4.596 11.8075 4.884 11.3755 5.448C10.9435 6.012 10.7275 6.792 10.7275 7.8C10.7275 8.808 10.9435 9.6 11.3755 10.164C11.8075 10.728 12.3835 11.004 13.1155 11.004ZM21.775 12.192C20.719 12.192 19.879 11.976 19.243 11.532C18.595 11.1 18.211 10.488 18.091 9.696H19.771C19.867 10.104 20.095 10.428 20.455 10.668C20.815 10.92 21.259 11.04 21.787 11.04C22.363 11.04 22.807 10.932 23.119 10.716C23.431 10.5 23.587 10.2 23.587 9.84C23.587 9.516 23.467 9.252 23.227 9.036C22.987 8.82 22.603 8.652 22.051 8.52L20.527 8.136C19.063 7.776 18.331 6.996 18.331 5.796C18.331 5.304 18.463 4.884 18.739 4.524C19.015 4.164 19.399 3.888 19.903 3.696C20.395 3.504 20.983 3.408 21.655 3.408C22.627 3.408 23.407 3.624 23.995 4.044C24.571 4.464 24.919 5.064 25.039 5.832H23.419C23.323 5.436 23.119 5.124 22.795 4.896C22.471 4.68 22.075 4.56 21.595 4.56C21.127 4.56 20.743 4.668 20.443 4.86C20.131 5.052 19.987 5.328 19.987 5.664C19.987 5.964 20.095 6.204 20.311 6.384C20.527 6.576 20.887 6.72 21.379 6.828L22.903 7.2C23.623 7.368 24.187 7.656 24.619 8.04C25.039 8.424 25.255 8.952 25.255 9.6C25.255 10.128 25.111 10.596 24.823 10.98C24.535 11.364 24.139 11.664 23.623 11.88C23.095 12.096 22.483 12.192 21.775 12.192ZM28.2871 12V4.8H25.5751V3.6H32.6071V4.8H29.9071V12H28.2871Z" fill="#245530"/>
    <path d="M37.6312 12L35.6152 3.6H37.2472L38.7832 10.632L40.5832 3.6H42.4312L44.1832 10.62L45.8512 3.6H47.4232L45.2272 12H43.1992L41.4712 5.208L39.7192 12H37.6312ZM47.2229 12L50.3429 3.6H52.6229L55.6469 12H53.9549L53.1989 9.828H49.5989L48.8069 12H47.2229ZM50.0189 8.652H52.7909L51.4349 4.752L50.0189 8.652ZM57.6618 12V4.8H54.9498V3.6H61.9818V4.8H59.2818V12H57.6618ZM66.4202 12.192C65.5682 12.192 64.8362 12.012 64.2362 11.652C63.6242 11.292 63.1562 10.776 62.8322 10.116C62.4962 9.456 62.3402 8.688 62.3402 7.8C62.3402 6.924 62.4962 6.156 62.8322 5.496C63.1562 4.836 63.6242 4.32 64.2362 3.96C64.8482 3.6 65.5802 3.408 66.4322 3.408C67.3562 3.408 68.1362 3.624 68.7602 4.056C69.3842 4.488 69.7922 5.076 69.9842 5.832H68.2802C68.1362 5.448 67.9082 5.136 67.5962 4.908C67.2722 4.68 66.8762 4.56 66.4202 4.56C65.6882 4.56 65.1122 4.848 64.6802 5.412C64.2482 5.988 64.0322 6.78 64.0322 7.8C64.0322 8.832 64.2482 9.624 64.6802 10.188C65.1122 10.764 65.6882 11.04 66.4202 11.04C66.8882 11.04 67.2842 10.932 67.6202 10.692C67.9442 10.464 68.1722 10.128 68.3162 9.696H70.0082C69.7922 10.512 69.3722 11.136 68.7482 11.556C68.1242 11.988 67.3442 12.192 66.4202 12.192ZM71.2677 12V3.6H72.8877V7.08H76.7277V3.6H78.3597V12H76.7277V8.268H72.8877V12H71.2677Z" fill="white"/>
</svg>
